<svg width="120" height="32" viewBox="0 0 120 32" fill="none" xmlns="http://www.w3.org/2000/svg">
<path d="M19.0178 14.8791C18.986 11.3444 21.9128 9.62477 22.0466 9.54471C20.389 7.12864 17.8199 6.79853 16.917 6.77221C14.7592 6.54519 12.6661 8.06305 11.5669 8.06305C10.4458 8.06305 8.75311 6.79415 6.92879 6.83144C4.5812 6.86763 2.38499 8.22646 1.18048 10.3365C-1.30533 14.6389 0.548608 20.9615 2.93021 24.4392C4.12155 26.1435 5.51365 28.0441 7.33578 27.9772C9.11841 27.9048 9.78429 26.8421 11.9355 26.8421C14.067 26.8421 14.6923 27.9772 16.5506 27.9344C18.4638 27.9048 19.6683 26.2235 20.818 24.505C22.1947 22.5539 22.7476 20.6303 22.7695 20.5316C22.7257 20.5162 19.0551 19.1146 19.0178 14.8791ZM15.5074 4.48447C16.4662 3.28576 17.1222 1.65494 16.9401 0C15.5523 0.061416 13.8169 0.959626 12.8175 2.13201C11.9333 3.16512 11.1435 4.85845 11.3475 6.45088C12.9064 6.56713 14.5069 5.66453 15.5074 4.48447Z" fill="white"/>
<path d="M44.838 27.7326H42.3467L40.9821 23.4455H36.2386L34.9387 27.7326H32.5132L37.2139 13.1375H40.1165L44.838 27.7326ZM40.5707 21.6469L39.3366 17.8358C39.206 17.4465 38.9603 16.5296 38.6005 15.0864H38.5566C38.4118 15.7071 38.1803 16.624 37.8633 17.8358L36.65 21.6469H40.5707ZM56.9029 22.3411C56.9029 24.131 56.4169 25.5457 55.4439 26.5843C54.5729 27.5088 53.4901 27.9706 52.1989 27.9706C50.8046 27.9706 49.802 27.4738 49.1931 26.4779V31.9999H46.8543V20.6675C46.8543 19.5434 46.8247 18.3908 46.7677 17.2085H48.8246L48.9551 18.8766H48.999C49.7789 17.6198 50.9626 16.9914 52.5511 16.9914C53.7929 16.9914 54.8296 17.4816 55.6589 18.4631C56.4871 19.4469 56.9029 20.7388 56.9029 22.3411ZM54.5202 22.4267C54.5202 21.4023 54.2898 20.5579 53.8269 19.8922C53.3212 19.2001 52.6421 18.8536 51.7909 18.8536C51.2138 18.8536 50.6895 19.0466 50.221 19.4272C49.7515 19.811 49.4444 20.3122 49.3007 20.9329C49.2365 21.1651 49.2 21.404 49.192 21.6447V23.4006C49.192 24.165 49.4268 24.8109 49.8963 25.3395C50.3658 25.866 50.9758 26.1303 51.7261 26.1303C52.607 26.1303 53.2927 25.7892 53.783 25.1125C54.2745 24.4337 54.5202 23.5387 54.5202 22.4267ZM69.0105 22.3411C69.0105 24.131 68.5246 25.5457 67.5515 26.5843C66.6794 27.5088 65.5978 27.9706 64.3055 27.9706C62.9112 27.9706 61.9085 27.4738 61.2997 26.4779V31.9999H58.9609V20.6675C58.9609 19.5434 58.9313 18.3908 58.8742 17.2085H60.9311L61.0617 18.8766H61.1055C61.8844 17.6198 63.0681 16.9914 64.6576 16.9914C65.8983 16.9914 66.935 17.4816 67.7665 18.4631C68.5937 19.4469 69.0105 20.7388 69.0105 22.3411ZM66.6268 22.4267C66.6268 21.4023 66.3953 20.5579 65.9323 19.8922C65.4266 19.2001 64.7498 18.8536 63.8985 18.8536C63.3215 18.8536 62.7971 19.0466 62.3265 19.4272C61.857 19.811 61.5509 20.3122 61.4072 20.9329C61.3359 21.2225 61.2975 21.4583 61.2975 21.6447V23.4006C61.2975 24.165 61.5334 24.8109 62.0007 25.3395C62.4702 25.8649 63.0801 26.1303 63.8327 26.1303C64.7147 26.1303 65.4003 25.7892 65.8896 25.1125C66.381 24.4337 66.6268 23.5387 66.6268 22.4267ZM82.5476 23.6385C82.5476 24.8811 82.1132 25.8912 81.2498 26.671C80.2998 27.522 78.9736 27.9486 77.2732 27.9486C75.7023 27.9486 74.4429 27.6459 73.4929 27.0395L74.0337 25.0906C75.0594 25.6982 76.1861 26.0009 77.4125 26.0009C78.2945 26.0009 78.9801 25.8013 79.4694 25.4053C79.9598 25.0083 80.2077 24.4775 80.2077 23.8151C80.2077 23.2218 80.0025 22.725 79.5999 22.3203C79.1951 21.9167 78.526 21.5405 77.5858 21.1951C75.0298 20.242 73.7507 18.8481 73.7507 17.0144C73.7507 15.8168 74.2027 14.8363 75.1044 14.0697C76.0061 13.3042 77.2019 12.9214 78.6894 12.9214C80.0179 12.9214 81.1248 13.1529 82.0035 13.6146L81.4166 15.5207C80.5894 15.0732 79.6559 14.8495 78.6115 14.8495C77.7866 14.8495 77.1394 15.0524 76.6764 15.456C76.287 15.8168 76.0895 16.2566 76.0895 16.7786C76.0895 17.3544 76.3144 17.8325 76.762 18.2076C77.1503 18.5531 77.859 18.9292 78.8836 19.3328C80.1408 19.8395 81.0644 20.4296 81.6557 21.1073C82.2514 21.7851 82.5476 22.6307 82.5476 23.6385ZM90.3001 18.9632H87.7222V24.0728C87.7222 25.3724 88.1763 26.0206 89.0868 26.0206C89.5048 26.0206 89.8515 25.9855 90.1257 25.912L90.1904 27.6876C89.7297 27.8598 89.123 27.9464 88.3716 27.9464C87.4479 27.9464 86.7261 27.6646 86.205 27.1009C85.6861 26.5372 85.425 25.5929 85.425 24.2637V18.9589H83.8892V17.2041H85.425V15.2772L87.7222 14.5841V17.2041H90.3001V18.9632ZM101.909 22.3839C101.909 24.0016 101.446 25.3297 100.522 26.3683C99.5556 27.4376 98.2699 27.9706 96.6672 27.9706C95.1204 27.9706 93.8906 27.4584 92.9735 26.4352C92.0564 25.4097 91.5979 24.1178 91.5979 22.5594C91.5979 20.9286 92.0718 19.5928 93.0163 18.5542C93.963 17.5145 95.2378 16.9946 96.8405 16.9946C98.3851 16.9946 99.6258 17.5079 100.565 18.5322C101.462 19.5259 101.909 20.809 101.909 22.3839ZM99.4843 22.4376C99.4843 21.4736 99.2758 20.6467 98.8579 19.9547C98.3675 19.119 97.6654 18.7011 96.756 18.7011C95.8192 18.7011 95.1006 19.119 94.6114 19.9547C94.1923 20.6467 93.9839 21.4879 93.9839 22.4815C93.9839 23.4466 94.1923 24.2757 94.6114 24.9656C95.1171 25.8013 95.8225 26.2191 96.7363 26.2191C97.6303 26.2191 98.3313 25.7925 98.8381 24.9447C99.2681 24.2363 99.4843 23.4038 99.4843 22.4376ZM109.514 19.2648C109.271 19.2209 109.024 19.1993 108.777 19.2001C107.954 19.2001 107.318 19.5094 106.87 20.1323C106.482 20.6807 106.287 21.3738 106.287 22.2106V27.7326H103.948V20.5228C103.95 19.418 103.927 18.3133 103.88 17.2096H105.917L106.003 19.2232H106.067C106.315 18.5311 106.704 17.9729 107.237 17.5551C107.725 17.1899 108.318 16.9922 108.927 16.9914C109.143 16.9914 109.339 17.0067 109.512 17.0341L109.514 19.2648ZM119.974 21.9726C119.98 22.3281 119.951 22.6833 119.889 23.0332H112.872C112.898 24.0728 113.239 24.8691 113.89 25.4174C114.481 25.9065 115.246 26.1522 116.185 26.1522C117.224 26.1522 118.172 25.9877 119.024 25.6554L119.391 27.2774C118.394 27.7117 117.218 27.9278 115.861 27.9278C114.229 27.9278 112.948 27.4474 112.015 26.4889C111.085 25.5293 110.619 24.2395 110.619 22.6241C110.619 21.0382 111.052 19.7167 111.92 18.6627C112.828 17.5375 114.056 16.9749 115.6 16.9749C117.118 16.9749 118.266 17.5375 119.046 18.6627C119.664 19.5544 119.974 20.6599 119.974 21.9726ZM117.744 21.3661C117.76 20.6719 117.607 20.0742 117.29 19.5686C116.885 18.9172 116.262 18.5926 115.427 18.5926C114.662 18.5926 114.039 18.9095 113.565 19.5456C113.176 20.0512 112.945 20.6588 112.873 21.364L117.744 21.3661Z" fill="white"/>
<path d="M35.5635 7.97748C34.913 7.97748 34.3503 7.94567 33.8818 7.89193V0.83567C34.537 0.734493 35.199 0.684623 35.8619 0.686516C38.5441 0.686516 39.7793 2.00586 39.7793 4.15652C39.7793 6.63729 38.3203 7.97748 35.5635 7.97748ZM35.9563 1.59131C35.5943 1.59131 35.286 1.61324 35.0304 1.66588V7.02991C35.1686 7.05185 35.4341 7.06172 35.8071 7.06172C37.5645 7.06172 38.5649 6.06152 38.5649 4.18833C38.5649 2.51803 37.6599 1.59131 35.9563 1.59131ZM43.6287 8.03122C42.1171 8.03122 41.1374 6.9027 41.1374 5.37059C41.1374 3.77377 42.1379 2.63538 43.7143 2.63538C45.204 2.63538 46.2056 3.71016 46.2056 5.28614C46.2056 6.9027 45.1733 8.03122 43.6287 8.03122ZM43.6726 3.47546C42.8422 3.47546 42.3101 4.25194 42.3101 5.33768C42.3101 6.40259 42.8531 7.17907 43.6616 7.17907C44.4701 7.17907 45.0131 6.34886 45.0131 5.31575C45.0131 4.2629 44.4811 3.47546 43.6726 3.47546ZM54.8259 2.74176L53.2078 7.91387H52.1536L51.4833 5.6678C51.3166 5.11839 51.1779 4.56091 51.0675 3.9975H51.0456C50.9611 4.56121 50.8009 5.12602 50.6309 5.6678L49.9179 7.91387H48.8527L47.33 2.74176H48.5115L49.0973 5.20059C49.2355 5.78624 49.3518 6.33898 49.4483 6.86102H49.4703C49.5547 6.42562 49.693 5.88165 49.8959 5.21156L50.6309 2.74286H51.5678L52.2709 5.15892C52.441 5.74456 52.5792 6.31924 52.6867 6.86212H52.7174C52.792 6.33021 52.9094 5.7654 53.0685 5.15892L53.697 2.74286L54.8259 2.74176ZM60.7826 7.91387H59.6329V4.94396C59.6329 4.0293 59.2819 3.57088 58.5897 3.57088C57.9084 3.57088 57.44 4.15652 57.44 4.83758V7.91387H56.2904V4.22013C56.2904 3.7628 56.2794 3.27257 56.2476 2.74066H57.259L57.3128 3.53907H57.3446C57.6539 2.98633 58.2814 2.63538 58.9846 2.63538C60.0706 2.63538 60.7837 3.46559 60.7837 4.81674L60.7826 7.91387ZM63.9529 7.91387H62.8022V0.368469H63.9529V7.91387ZM68.1446 8.03122C66.634 8.03122 65.6533 6.9027 65.6533 5.37059C65.6533 3.77377 66.6538 2.63538 68.2291 2.63538C69.7199 2.63538 70.7204 3.71016 70.7204 5.28614C70.7215 6.9027 69.6881 8.03122 68.1446 8.03122ZM68.1874 3.47546C67.3569 3.47546 66.8249 4.25194 66.8249 5.33768C66.8249 6.40259 67.369 7.17907 68.1753 7.17907C68.9849 7.17907 69.5268 6.34886 69.5268 5.31575C69.5279 4.2629 68.997 3.47546 68.1874 3.47546ZM75.2532 7.91387L75.1698 7.31835H75.1391C74.7881 7.79762 74.2758 8.03122 73.6263 8.03122C72.6994 8.03122 72.0412 7.38196 72.0412 6.50898C72.0412 5.2324 73.148 4.57218 75.0645 4.57218V4.47676C75.0645 3.7957 74.7036 3.45462 73.9905 3.45462C73.4804 3.45462 73.0329 3.58294 72.639 3.83847L72.4054 3.08284C72.8837 2.78453 73.4804 2.63538 74.1814 2.63538C75.5329 2.63538 76.2153 3.34824 76.2153 4.77507V6.68006C76.2153 7.2021 76.2383 7.60679 76.2899 7.91496L75.2532 7.91387ZM75.0952 5.33768C73.8183 5.33768 73.1777 5.64696 73.1777 6.38066C73.1777 6.92353 73.5079 7.18894 73.9664 7.18894C74.5511 7.18894 75.0952 6.74258 75.0952 6.13609V5.33768ZM81.7979 7.91387L81.7442 7.08365H81.7124C81.3822 7.71097 80.8271 8.03122 80.0515 8.03122C78.8042 8.03122 77.8805 6.9345 77.8805 5.39142C77.8805 3.77377 78.8382 2.63428 80.1458 2.63428C80.838 2.63428 81.3284 2.86788 81.6049 3.33728H81.6279V0.368469H82.7786V6.51994C82.7786 7.02004 82.7907 7.48834 82.8214 7.91387H81.7979ZM81.6279 4.87048C81.6279 4.14665 81.1485 3.5292 80.4168 3.5292C79.5644 3.5292 79.0433 4.28484 79.0433 5.34865C79.0433 6.39163 79.5842 7.10559 80.3938 7.10559C81.1167 7.10559 81.6279 6.47717 81.6279 5.7325V4.87048ZM90.0748 8.03122C88.5643 8.03122 87.5846 6.9027 87.5846 5.37059C87.5846 3.77377 88.5851 2.63538 90.1604 2.63538C91.6512 2.63538 92.6517 3.71016 92.6517 5.28614C92.6528 6.9027 91.6205 8.03122 90.0748 8.03122ZM90.1176 3.47546C89.2883 3.47546 88.7562 4.25194 88.7562 5.33768C88.7562 6.40259 89.2992 7.17907 90.1066 7.17907C90.9162 7.17907 91.4582 6.34886 91.4582 5.31575C91.4604 4.2629 90.9283 3.47546 90.1176 3.47546ZM98.8344 7.91387H97.6837V4.94396C97.6837 4.0293 97.3326 3.57088 96.6404 3.57088C95.9592 3.57088 95.4918 4.15652 95.4918 4.83758V7.91387H94.3411V4.22013C94.3411 3.7628 94.3301 3.27257 94.2983 2.74066H95.3097L95.3635 3.53907H95.3953C95.7036 2.98633 96.3322 2.63428 97.0342 2.63428C98.1203 2.63428 98.8344 3.46449 98.8344 4.81565V7.91387ZM106.569 3.60378H105.305V6.11525C105.305 6.75464 105.526 7.07378 105.974 7.07378C106.177 7.07378 106.347 7.05185 106.484 7.02004L106.516 7.89303C106.293 7.97857 105.995 8.02134 105.624 8.02134C104.718 8.02134 104.176 7.52124 104.176 6.21176V3.60378H103.421V2.74176H104.176V1.7942L105.305 1.45312V2.74066H106.569V3.60378ZM112.656 7.91387H111.507V4.9659C111.507 4.04027 111.157 3.57197 110.464 3.57197C109.868 3.57197 109.313 3.97666 109.313 4.79591V7.91387H108.164V0.368469H109.313V3.47546H109.336C109.698 2.91175 110.222 2.63428 110.892 2.63428C111.986 2.63428 112.656 3.48533 112.656 4.83758V7.91387ZM118.891 5.60419H115.441C115.463 6.58355 116.111 7.1363 117.071 7.1363C117.581 7.1363 118.051 7.05075 118.465 6.89173L118.644 7.69014C118.155 7.9029 117.579 8.00928 116.909 8.00928C115.291 8.00928 114.333 6.98714 114.333 5.40239C114.333 3.81654 115.314 2.62441 116.779 2.62441C118.101 2.62441 118.93 3.60378 118.93 5.08325C118.938 5.25784 118.925 5.4327 118.891 5.60419ZM117.837 4.78494C117.837 3.98653 117.434 3.42282 116.699 3.42282C116.039 3.42282 115.517 3.9975 115.442 4.78494H117.837Z" fill="white"/>
</svg>
