<svg width="24" height="24" viewBox="0 0 24 24" fill="none" xmlns="http://www.w3.org/2000/svg">
<circle cx="12" cy="12" r="12" fill="#212429"/>
<path d="M6.24123 14.1774L5.4428 8.98777C5.38373 8.60452 5.82036 8.3429 6.13055 8.57565L8.61817 10.4411C8.68283 10.4896 8.75669 10.5243 8.83523 10.5433C8.91377 10.5622 8.99534 10.565 9.07498 10.5513C9.15461 10.5377 9.23063 10.508 9.29839 10.464C9.36616 10.42 9.42424 10.3626 9.46911 10.2955L11.5402 7.18921C11.759 6.86108 12.2411 6.86108 12.4599 7.18921L14.531 10.2955C14.5758 10.3626 14.6339 10.42 14.7017 10.464C14.7695 10.508 14.8455 10.5377 14.9251 10.5513C15.0047 10.565 15.0863 10.5622 15.1649 10.5433C15.2434 10.5243 15.3173 10.4896 15.3819 10.4411L17.8695 8.57565C18.1802 8.3429 18.6164 8.60452 18.5573 8.98777L17.7589 14.1774H6.24123ZM17.1582 17.057H6.84192C6.76304 17.057 6.68493 17.0415 6.61205 17.0113C6.53917 16.9811 6.47295 16.9369 6.41717 16.8811C6.30452 16.7684 6.24123 16.6156 6.24123 16.4563V15.1373H17.7589V16.4563C17.7589 16.788 17.4898 17.057 17.1582 17.057Z" fill="#FFB743"/>
</svg>
