<svg width="137" height="33" viewBox="0 0 137 33" fill="none" xmlns="http://www.w3.org/2000/svg">
<path d="M113.957 28.2101H116.15V13.5173H113.957V28.2101ZM133.709 18.8104L131.196 25.1801H131.12L128.511 18.8104H126.149L130.063 27.713L127.831 32.6654H130.118L136.148 18.8108L133.709 18.8104ZM121.272 26.5412C120.555 26.5412 119.553 26.1817 119.553 25.2934C119.553 24.1594 120.801 23.7247 121.877 23.7247C122.841 23.7247 123.296 23.9323 123.881 24.216C123.711 25.5771 122.539 26.5412 121.272 26.5412ZM121.538 18.489C119.95 18.489 118.306 19.1886 117.625 20.7386L119.572 21.5511C119.988 20.7385 120.762 20.4742 121.575 20.4742C122.709 20.4742 123.862 21.154 123.881 22.3641V22.5152C123.484 22.2883 122.633 21.9482 121.594 21.9482C119.495 21.9482 117.36 23.1009 117.36 25.2558C117.36 27.2216 119.08 28.4881 121.008 28.4881C122.482 28.4881 123.296 27.8266 123.805 27.0513H123.881V28.186H125.999V22.5527C125.999 19.9443 124.05 18.489 121.538 18.489ZM107.985 20.5989H104.866V15.563H107.985C109.624 15.563 110.555 16.92 110.555 18.0809C110.555 19.2195 109.624 20.5989 107.985 20.5989ZM107.928 13.5177H102.674V28.2105H104.866V22.6442H107.928C110.359 22.6442 112.748 20.885 112.748 18.0814C112.748 15.2784 110.359 13.5177 107.928 13.5177ZM79.2751 26.5437C77.7601 26.5437 76.4922 25.2747 76.4922 23.5335C76.4922 21.772 77.7601 20.4852 79.2751 20.4852C80.7709 20.4852 81.9447 21.7721 81.9447 23.5335C81.9447 25.2747 80.7709 26.5437 79.2751 26.5437ZM81.7932 19.6329H81.7174C81.2253 19.0461 80.2781 18.5159 79.086 18.5159C76.5863 18.5159 74.2955 20.7125 74.2955 23.5335C74.2955 26.3353 76.5863 28.5126 79.086 28.5126C80.2781 28.5126 81.2252 27.9823 81.7174 27.3769H81.7932V28.0958C81.7932 30.0088 80.7709 31.0306 79.1236 31.0306C77.7799 31.0306 76.9467 30.0652 76.6056 29.2512L74.6937 30.0463C75.2422 31.3711 76.6997 33 79.1237 33C81.6991 33 83.8765 31.485 83.8765 27.7927V18.8187H81.7933L81.7932 19.6329ZM85.3914 28.2097H87.5867V13.5169H85.3914V28.2097ZM90.8246 23.3628C90.7681 21.4315 92.3211 20.4471 93.4377 20.4471C94.309 20.4471 95.0466 20.8828 95.2937 21.5072L90.8246 23.3628ZM97.6405 21.6963C97.2241 20.5799 95.9557 18.5159 93.3619 18.5159C90.7865 18.5159 88.6472 20.5417 88.6472 23.5143C88.6472 26.3165 90.7681 28.5127 93.6075 28.5127C95.8983 28.5127 97.2242 27.1121 97.7736 26.2976L96.0695 25.1615C95.5013 25.9947 94.7254 26.5437 93.6075 26.5437C92.4911 26.5437 91.6955 26.0324 91.185 25.0289L97.8677 22.2648L97.6405 21.6963ZM44.3933 20.0496V22.1701H49.4673C49.3158 23.3629 48.9183 24.2337 48.3123 24.8396C47.5737 25.5778 46.4187 26.3922 44.3932 26.3922C41.2691 26.3922 38.8269 23.8742 38.8269 20.7502C38.8269 17.6262 41.2691 15.1078 44.3932 15.1078C46.0784 15.1078 47.3088 15.7706 48.2176 16.6226L49.7138 15.1266C48.4449 13.915 46.7601 12.9873 44.3932 12.9873C40.1136 12.9873 36.5164 16.4711 36.5164 20.7502C36.5164 25.0288 40.1136 28.5127 44.3932 28.5127C46.7028 28.5127 48.4449 27.7553 49.8079 26.3354C51.2091 24.9342 51.6447 22.9653 51.6447 21.3746C51.6447 20.8829 51.6065 20.4285 51.5308 20.0496H44.3933ZM57.414 26.5437C55.899 26.5437 54.5925 25.294 54.5925 23.5143C54.5925 21.7156 55.899 20.4853 57.414 20.4853C58.9284 20.4853 60.2349 21.7156 60.2349 23.5143C60.2349 25.294 58.9284 26.5437 57.414 26.5437ZM57.414 18.5159C54.6489 18.5159 52.3962 20.6174 52.3962 23.5143C52.3962 26.3922 54.6489 28.5127 57.414 28.5127C60.178 28.5127 62.4312 26.3922 62.4312 23.5143C62.4312 20.6174 60.178 18.5159 57.414 18.5159ZM68.3589 26.5437C66.8449 26.5437 65.538 25.294 65.538 23.5143C65.538 21.7156 66.845 20.4853 68.3589 20.4853C69.8739 20.4853 71.18 21.7156 71.18 23.5143C71.18 25.294 69.8739 26.5437 68.3589 26.5437ZM68.3589 18.5159C65.5949 18.5159 63.3422 20.6174 63.3422 23.5143C63.3422 26.3922 65.5949 28.5127 68.3589 28.5127C71.124 28.5127 73.3767 26.3922 73.3767 23.5143C73.3767 20.6174 71.124 18.5159 68.3589 18.5159Z" fill="black"/>
<path d="M12.6279 15.7811L0.116699 29.0609C0.11717 29.0637 0.11811 29.066 0.11855 29.0688C0.502261 30.5108 1.81939 31.5726 3.38254 31.5726C4.00741 31.5726 4.59408 31.4037 5.09721 31.1071L5.13717 31.0837L19.2209 22.9568L12.6279 15.7811Z" fill="#EB3131"/>
<path d="M25.286 13.5201L25.274 13.5119L19.1936 9.987L12.3433 16.0827L19.2174 22.956L25.2657 19.4661C26.3261 18.8937 27.0459 17.7758 27.0459 16.4867C27.0459 15.2068 26.3358 14.0944 25.286 13.5201Z" fill="#F6B60B"/>
<path d="M0.114746 3.85602C0.0395323 4.13337 0 4.42389 0 4.72557V28.1923C0 28.4934 0.0390657 28.7849 0.115223 29.0613L13.0584 16.1208L0.114746 3.85602Z" fill="#5778C5"/>
<path d="M12.7199 16.4588L19.1962 9.98447L5.1283 1.82812C4.61696 1.52185 4.02015 1.34509 3.38155 1.34509C1.81839 1.34509 0.499486 2.40882 0.115705 3.85254C0.115234 3.85395 0.115234 3.85492 0.115234 3.85615L12.7199 16.4588Z" fill="#3BAD49"/>
<path d="M43.9815 4.44844H40.5531V5.29684H43.1222C43.0524 5.98917 42.7769 6.53271 42.3123 6.92751C41.8478 7.32239 41.2546 7.52065 40.5531 7.52065C39.7837 7.52065 39.1318 7.25258 38.5976 6.72009C38.0741 6.17655 37.8079 5.5044 37.8079 4.69462C37.8079 3.88489 38.0741 3.21273 38.5976 2.66924C39.1318 2.13674 39.7837 1.87044 40.5531 1.87044C40.948 1.87044 41.3244 1.93837 41.6696 2.08715C42.0149 2.23581 42.2921 2.44336 42.5088 2.70967L43.1607 2.05777C42.865 1.72166 42.4905 1.46463 42.0258 1.2773C41.5612 1.08997 41.0765 1.00006 40.553 1.00006C39.5266 1.00006 38.6563 1.35627 37.9456 2.06696C37.2349 2.77939 36.8787 3.65718 36.8787 4.69464C36.8787 5.7321 37.2349 6.61178 37.9456 7.32249C38.6562 8.03303 39.5266 8.38939 40.553 8.38939C41.631 8.38939 42.4904 8.04411 43.1515 7.34258C43.7335 6.75873 44.031 5.96912 44.031 4.98119C44.031 4.81407 44.0109 4.63577 43.9815 4.44844ZM45.3097 1.15783V8.23134H49.4394V7.36273H46.2186V5.11883H49.1237V4.27043H46.2186V2.0283H49.4394V1.15781L45.3097 1.15783ZM55.2303 2.02833V1.15783H50.3696V2.02833H52.3455V8.23132H53.2545V2.02833H55.2303ZM59.6309 1.15783H58.722V8.23134H59.6309V1.15783ZM65.6306 2.02833V1.15783H60.7699V2.02833H62.7457V8.23132H63.6546V2.02833H65.6306ZM74.8029 2.07792C74.1014 1.35622 73.242 1 72.2155 1C71.1872 1 70.3279 1.35621 69.6263 2.0669C68.9248 2.7684 68.5797 3.64795 68.5797 4.69458C68.5797 5.7412 68.9249 6.62088 69.6263 7.32242C70.3278 8.03297 71.1872 8.38932 72.2155 8.38932C73.2328 8.38932 74.1013 8.03299 74.8029 7.32242C75.5044 6.62093 75.8495 5.74129 75.8495 4.69458C75.8495 3.65711 75.5043 2.77928 74.8029 2.07792ZM70.2783 2.66917C70.8016 2.13668 71.4443 1.87037 72.2155 1.87037C72.9849 1.87037 73.6277 2.13668 74.1418 2.66917C74.6651 3.19251 74.9222 3.87552 74.9222 4.69456C74.9222 5.51546 74.6651 6.19663 74.1418 6.72003C73.6276 7.25253 72.9849 7.52059 72.2155 7.52059C71.4443 7.52059 70.8016 7.25252 70.2783 6.72003C69.7659 6.18565 69.5088 5.51545 69.5088 4.69456C69.5088 3.87554 69.7659 3.20351 70.2783 2.66917ZM78.0091 3.82607L77.9705 2.46159H78.0091L81.6046 8.23126H82.5539V1.15776H81.6449V5.29676L81.6834 6.66124H81.6449L78.2074 1.15776H77.1001V8.23126H78.0091V3.82607Z" fill="black" stroke="black" stroke-width="0.26666" stroke-miterlimit="10"/>
</svg>
