<svg width="145" height="32" viewBox="0 0 145 32" fill="none" xmlns="http://www.w3.org/2000/svg">
<g clip-path="url(#clip0_1_1160)">
<path d="M28.7964 8.33656C27.5716 6.86344 26.4886 5.30763 26.4886 3.86206C26.534 3.12775 26.8024 2.42306 27.2598 1.83725C27.5056 1.4725 27.5259 1.006 27.3128 0.622375C27.0996 0.238688 26.6874 -0.000249804 26.2391 1.95989e-07H10.0441C6.64179 1.95989e-07 0.971284 9.93106 0.971284 13.2414C0.971284 14.8966 1.53836 16.5517 1.53836 22.6207C1.56874 25.3196 1.30647 28.014 0.755836 30.6593C0.682928 30.9863 0.766049 31.3279 0.981947 31.5883C1.19784 31.8487 1.52333 32.0001 1.86725 32H23.0862C25.3544 32 28.7567 31.4482 28.7567 28.6896C28.7567 26.4827 27.6227 25.931 27.6227 25.3792C27.6227 24.8275 29.3238 24.2758 29.3238 23.1724C29.2665 22.4666 28.8372 21.8402 28.1897 21.5172C28.1897 21.5172 29.8909 20.9654 29.8909 19.862C29.8909 19.3102 29.3238 18.7586 29.3238 18.2068V16.8054C29.322 16.3374 29.5829 15.9058 30.0043 15.6799C30.5989 15.3844 31.1361 14.9905 31.592 14.5158C31.9352 14.173 32.137 13.7194 32.1591 13.2413C32.159 12 30.3671 10.2345 28.7964 8.33656Z" fill="#C4C4C4"/>
<path d="M7.77587 19.3103V19.36C7.78524 19.6815 8.01322 19.9577 8.33382 20.036C8.65442 20.1143 8.98941 19.9756 9.15379 19.6965C9.98848 18.1324 11.6354 17.1375 13.4464 17.1034H20.818C22.5192 17.1034 25.9215 18.2068 25.9215 19.3103V19.4372C25.9255 19.8692 25.6924 20.2705 25.3101 20.49C24.9277 20.7096 24.454 20.7142 24.0672 20.502C22.3636 19.6509 20.4636 19.2405 18.5499 19.3102C13.4464 19.3102 10.6112 20.9654 10.6112 23.724C10.6112 25.9254 11.1763 27.5787 12.3066 28.684C11.0554 28.141 9.90716 27.3968 8.91002 26.4827C8.91002 26.4827 8.03108 29.0482 8.5925 31.1668C8.72238 31.6575 9.17743 32.0004 9.69826 31.9999H4.37354C4.99913 31.9981 5.50583 31.5052 5.50762 30.8965V17.1033C5.50762 14.8965 4.94055 13.2413 4.94055 12.1378C4.94055 9.93097 5.50762 8.27579 11.1781 8.27579C12.8792 8.27579 14.0133 7.17235 14.0133 6.6206C14.0032 6.43097 13.967 6.2436 13.9056 6.06335C13.808 5.76066 13.8518 5.43154 14.0253 5.16297C14.1988 4.89435 14.4846 4.71329 14.8072 4.66754C16.4247 4.47304 18.0542 4.38822 19.6838 4.41372C22.2355 4.41372 24.6058 6.51029 26.1936 8.5406C27.4297 10.1185 28.1896 11.6523 28.1896 12.1378C28.2358 12.8823 27.952 13.6105 27.4099 14.1378C26.8679 14.6652 26.1195 14.9414 25.3543 14.8965H11.7452C10.044 14.8965 7.77587 16.5517 7.77587 19.3103Z" fill="#D75E72"/>
<path d="M16.2819 8.27581C16.3843 8.27581 18.7998 8.26156 20.0851 7.01069C20.2305 6.87175 20.2881 6.66756 20.2359 6.47594C20.1838 6.28425 20.0299 6.13456 19.8329 6.08381C19.6359 6.03306 19.4261 6.08913 19.2833 6.23056C18.3319 7.15619 16.3013 7.17238 16.2814 7.17238C15.9682 7.1725 15.7144 7.41969 15.7146 7.72438C15.7147 8.02906 15.9687 8.27594 16.2819 8.27581Z" fill="#802D40"/>
<path d="M23.5936 8.52255C23.6848 8.34618 23.6721 8.1358 23.5604 7.97093C23.4487 7.80605 23.255 7.7118 23.0525 7.7238C22.85 7.7358 22.6694 7.85218 22.5791 8.02899C22.5691 8.04811 21.5668 9.93093 18.5499 9.93093C16.8911 9.98243 15.233 9.80611 13.6248 9.40724C13.4326 9.34505 13.2208 9.38743 13.0694 9.5183C12.9179 9.64924 12.8497 9.8488 12.8905 10.0419C12.9313 10.2349 13.0749 10.3922 13.2672 10.4544C14.9895 10.8977 16.7694 11.0931 18.55 11.0344C22.2601 11.0344 23.5409 8.62518 23.5936 8.52255Z" fill="#802D40"/>
<path d="M25.1938 11.2131C24.9797 10.9972 24.6284 10.9847 24.3987 11.1848C24.3876 11.1945 23.249 12.1379 19.1169 12.1379C17.646 12.1667 16.1784 11.9904 14.7588 11.6142C14.4616 11.5181 14.1406 11.6746 14.0418 11.9638C13.943 12.253 14.1039 12.5653 14.4011 12.6614C15.935 13.0799 17.5242 13.2754 19.1169 13.2414C23.7541 13.2414 25.0554 12.1059 25.1883 11.9763C25.4036 11.7659 25.4061 11.4265 25.1938 11.2131Z" fill="#802D40"/>
</g>
<path d="M47.7713 23H44.4759L49.4972 8.45455H53.4602L58.4744 23H55.179L51.5355 11.7784H51.4219L47.7713 23ZM47.5653 17.2827H55.3494V19.6832H47.5653V17.2827ZM62.3939 16.6932V23H59.3683V12.0909H62.2518V14.0156H62.3797C62.6212 13.3812 63.026 12.8793 63.5942 12.5099C64.1624 12.1359 64.8513 11.9489 65.6609 11.9489C66.4185 11.9489 67.079 12.1146 67.6425 12.446C68.2059 12.7775 68.6439 13.2509 68.9564 13.8665C69.2689 14.4773 69.4251 15.2064 69.4251 16.054V23H66.3996V16.5938C66.4043 15.9261 66.2339 15.4053 65.8882 15.0312C65.5426 14.6525 65.0667 14.4631 64.4607 14.4631C64.0535 14.4631 63.6936 14.5507 63.3811 14.7259C63.0733 14.901 62.8319 15.1567 62.6567 15.4929C62.4862 15.8243 62.3986 16.2244 62.3939 16.6932ZM74.1205 23.206C73.4245 23.206 72.8042 23.0852 72.2597 22.8438C71.7152 22.5975 71.2844 22.2353 70.9671 21.7571C70.6546 21.2741 70.4984 20.6728 70.4984 19.9531C70.4984 19.3471 70.6096 18.8381 70.8322 18.4261C71.0547 18.0142 71.3577 17.6828 71.7413 17.4318C72.1248 17.1809 72.5604 16.9915 73.0481 16.8636C73.5405 16.7358 74.0566 16.6458 74.5964 16.5938C75.2308 16.5275 75.7422 16.4659 76.1305 16.4091C76.5187 16.3475 76.8004 16.2576 76.9756 16.1392C77.1508 16.0208 77.2384 15.8456 77.2384 15.6136V15.571C77.2384 15.1212 77.0964 14.7732 76.8123 14.527C76.5329 14.2808 76.1352 14.1577 75.6191 14.1577C75.0746 14.1577 74.6414 14.2784 74.3194 14.5199C73.9974 14.7566 73.7844 15.0549 73.6802 15.4148L70.8819 15.1875C71.0239 14.5246 71.3033 13.9517 71.72 13.4688C72.1366 12.9811 72.674 12.607 73.3322 12.3466C73.9951 12.0814 74.7621 11.9489 75.6333 11.9489C76.2394 11.9489 76.8194 12.0199 77.3734 12.1619C77.9321 12.304 78.4269 12.5241 78.8577 12.8224C79.2933 13.1207 79.6366 13.5043 79.8876 13.973C80.1385 14.437 80.264 14.9934 80.264 15.642V23H77.3947V21.4872H77.3094C77.1343 21.8281 76.8999 22.1288 76.6063 22.3892C76.3128 22.6449 75.96 22.8461 75.5481 22.9929C75.1362 23.1349 74.6603 23.206 74.1205 23.206ZM74.987 21.1179C75.4321 21.1179 75.8251 21.0303 76.166 20.8551C76.5069 20.6752 76.7744 20.4337 76.9685 20.1307C77.1627 19.8277 77.2597 19.4844 77.2597 19.1009V17.9432C77.165 18.0047 77.0348 18.0616 76.8691 18.1136C76.7081 18.161 76.5258 18.206 76.3222 18.2486C76.1186 18.2865 75.915 18.322 75.7114 18.3551C75.5078 18.3835 75.3232 18.4096 75.1575 18.4332C74.8023 18.4853 74.4922 18.5682 74.2271 18.6818C73.9619 18.7955 73.7559 18.9493 73.6092 19.1435C73.4624 19.3329 73.389 19.5696 73.389 19.8537C73.389 20.2656 73.5381 20.5805 73.8364 20.7983C74.1395 21.0114 74.523 21.1179 74.987 21.1179ZM87.6138 12.0909V14.3636H81.0442V12.0909H87.6138ZM82.5357 9.47727H85.5613V19.6477C85.5613 19.9271 85.6039 20.1449 85.6891 20.3011C85.7744 20.4527 85.8927 20.5592 86.0442 20.6207C86.2005 20.6823 86.3804 20.7131 86.584 20.7131C86.7261 20.7131 86.8681 20.7012 87.0102 20.6776C87.1522 20.6491 87.2611 20.6278 87.3369 20.6136L87.8127 22.8651C87.6612 22.9124 87.4481 22.9669 87.1735 23.0284C86.8989 23.0947 86.5651 23.1349 86.1721 23.1491C85.4429 23.1776 84.8037 23.0805 84.2545 22.858C83.71 22.6354 83.2862 22.2898 82.9832 21.821C82.6801 21.3523 82.531 20.7604 82.5357 20.0455V9.47727ZM93.5965 23.2131C92.4933 23.2131 91.5392 22.9787 90.7343 22.5099C89.9341 22.0365 89.3162 21.3783 88.8806 20.5355C88.445 19.688 88.2272 18.7055 88.2272 17.5881C88.2272 16.4612 88.445 15.4763 88.8806 14.6335C89.3162 13.786 89.9341 13.1278 90.7343 12.6591C91.5392 12.1856 92.4933 11.9489 93.5965 11.9489C94.6997 11.9489 95.6514 12.1856 96.4516 12.6591C97.2566 13.1278 97.8768 13.786 98.3124 14.6335C98.748 15.4763 98.9658 16.4612 98.9658 17.5881C98.9658 18.7055 98.748 19.688 98.3124 20.5355C97.8768 21.3783 97.2566 22.0365 96.4516 22.5099C95.6514 22.9787 94.6997 23.2131 93.5965 23.2131ZM93.6107 20.8693C94.1126 20.8693 94.5317 20.7273 94.8678 20.4432C95.204 20.1544 95.4573 19.7614 95.6278 19.2642C95.803 18.767 95.8906 18.2012 95.8906 17.5668C95.8906 16.9323 95.803 16.3665 95.6278 15.8693C95.4573 15.3722 95.204 14.9792 94.8678 14.6903C94.5317 14.4015 94.1126 14.2571 93.6107 14.2571C93.1041 14.2571 92.678 14.4015 92.3323 14.6903C91.9914 14.9792 91.7334 15.3722 91.5582 15.8693C91.3877 16.3665 91.3025 16.9323 91.3025 17.5668C91.3025 18.2012 91.3877 18.767 91.5582 19.2642C91.7334 19.7614 91.9914 20.1544 92.3323 20.4432C92.678 20.7273 93.1041 20.8693 93.6107 20.8693ZM100.133 23V12.0909H103.017V14.0156H103.145C103.372 13.3764 103.751 12.8722 104.281 12.5028C104.811 12.1335 105.446 11.9489 106.184 11.9489C106.932 11.9489 107.569 12.1359 108.095 12.5099C108.62 12.8793 108.971 13.3812 109.146 14.0156H109.26C109.482 13.3906 109.885 12.8911 110.467 12.517C111.054 12.1383 111.748 11.9489 112.548 11.9489C113.566 11.9489 114.392 12.2732 115.027 12.9219C115.666 13.5658 115.985 14.4796 115.985 15.6634V23H112.967V16.2599C112.967 15.6539 112.806 15.1993 112.484 14.8963C112.162 14.5933 111.76 14.4418 111.277 14.4418C110.727 14.4418 110.299 14.617 109.991 14.9673C109.683 15.313 109.529 15.7699 109.529 16.3381V23H106.596V16.196C106.596 15.661 106.442 15.2348 106.135 14.9176C105.832 14.6004 105.431 14.4418 104.934 14.4418C104.598 14.4418 104.295 14.527 104.025 14.6974C103.76 14.8632 103.549 15.0975 103.393 15.4006C103.237 15.6989 103.159 16.0492 103.159 16.4517V23H100.133ZM117.575 23V12.0909H120.601V23H117.575ZM119.095 10.6847C118.645 10.6847 118.26 10.5355 117.938 10.2372C117.62 9.93419 117.462 9.57197 117.462 9.15057C117.462 8.7339 117.62 8.37642 117.938 8.07812C118.26 7.77509 118.645 7.62358 119.095 7.62358C119.545 7.62358 119.929 7.77509 120.246 8.07812C120.568 8.37642 120.729 8.7339 120.729 9.15057C120.729 9.57197 120.568 9.93419 120.246 10.2372C119.929 10.5355 119.545 10.6847 119.095 10.6847ZM125.335 23.206C124.639 23.206 124.019 23.0852 123.475 22.8438C122.93 22.5975 122.499 22.2353 122.182 21.7571C121.869 21.2741 121.713 20.6728 121.713 19.9531C121.713 19.3471 121.824 18.8381 122.047 18.4261C122.27 18.0142 122.573 17.6828 122.956 17.4318C123.34 17.1809 123.775 16.9915 124.263 16.8636C124.755 16.7358 125.271 16.6458 125.811 16.5938C126.446 16.5275 126.957 16.4659 127.345 16.4091C127.734 16.3475 128.015 16.2576 128.19 16.1392C128.366 16.0208 128.453 15.8456 128.453 15.6136V15.571C128.453 15.1212 128.311 14.7732 128.027 14.527C127.748 14.2808 127.35 14.1577 126.834 14.1577C126.289 14.1577 125.856 14.2784 125.534 14.5199C125.212 14.7566 124.999 15.0549 124.895 15.4148L122.097 15.1875C122.239 14.5246 122.518 13.9517 122.935 13.4688C123.351 12.9811 123.889 12.607 124.547 12.3466C125.21 12.0814 125.977 11.9489 126.848 11.9489C127.454 11.9489 128.034 12.0199 128.588 12.1619C129.147 12.304 129.642 12.5241 130.073 12.8224C130.508 13.1207 130.851 13.5043 131.102 13.973C131.353 14.437 131.479 14.9934 131.479 15.642V23H128.61V21.4872H128.524C128.349 21.8281 128.115 22.1288 127.821 22.3892C127.528 22.6449 127.175 22.8461 126.763 22.9929C126.351 23.1349 125.875 23.206 125.335 23.206ZM126.202 21.1179C126.647 21.1179 127.04 21.0303 127.381 20.8551C127.722 20.6752 127.989 20.4337 128.183 20.1307C128.378 19.8277 128.475 19.4844 128.475 19.1009V17.9432C128.38 18.0047 128.25 18.0616 128.084 18.1136C127.923 18.161 127.741 18.206 127.537 18.2486C127.333 18.2865 127.13 18.322 126.926 18.3551C126.723 18.3835 126.538 18.4096 126.372 18.4332C126.017 18.4853 125.707 18.5682 125.442 18.6818C125.177 18.7955 124.971 18.9493 124.824 19.1435C124.677 19.3329 124.604 19.5696 124.604 19.8537C124.604 20.2656 124.753 20.5805 125.051 20.7983C125.354 21.0114 125.738 21.1179 126.202 21.1179ZM136.052 16.6932V23H133.026V12.0909H135.91V14.0156H136.037C136.279 13.3812 136.684 12.8793 137.252 12.5099C137.82 12.1359 138.509 11.9489 139.319 11.9489C140.076 11.9489 140.737 12.1146 141.3 12.446C141.864 12.7775 142.302 13.2509 142.614 13.8665C142.927 14.4773 143.083 15.2064 143.083 16.054V23H140.057V16.5938C140.062 15.9261 139.892 15.4053 139.546 15.0312C139.2 14.6525 138.725 14.4631 138.118 14.4631C137.711 14.4631 137.351 14.5507 137.039 14.7259C136.731 14.901 136.49 15.1567 136.314 15.4929C136.144 15.8243 136.056 16.2244 136.052 16.6932Z" fill="#090B0E"/>
<defs>
<clipPath id="clip0_1_1160">
<rect width="32.8889" height="32" fill="white"/>
</clipPath>
</defs>
</svg>
