<svg width="32" height="32" viewBox="0 0 32 32" fill="none" xmlns="http://www.w3.org/2000/svg">
<g clip-path="url(#clip0_1_1147)">
<path d="M16 32C24.8366 32 32 24.8366 32 16C32 7.16344 24.8366 0 16 0C7.16344 0 0 7.16344 0 16C0 24.8366 7.16344 32 16 32Z" fill="#A9A9B1"/>
<path d="M16 14.6666C18.2091 14.6666 20 12.8758 20 10.6666C20 8.45749 18.2091 6.66663 16 6.66663C13.7909 6.66663 12 8.45749 12 10.6666C12 12.8758 13.7909 14.6666 16 14.6666Z" fill="white"/>
<path d="M16 25.3333C14.5346 25.3333 13.1086 24.8782 11.9352 24.036C10.7618 23.1939 9.90395 22.0099 9.49001 20.6612C8.77568 18.3338 10.5942 16 13.1233 16H18.8768C21.4059 16 23.2244 18.3329 22.5101 20.6603C22.0963 22.0092 21.2386 23.1933 20.0651 24.0356C18.8917 24.878 17.4656 25.3332 16 25.3333Z" fill="white"/>
</g>
<defs>
<clipPath id="clip0_1_1147">
<rect width="32" height="32" fill="white"/>
</clipPath>
</defs>
</svg>
